<?xml version="1.0" encoding="UTF-8"?>
<svg id="Capa_1" xmlns="http://www.w3.org/2000/svg" version="1.1" viewBox="0 0 1721.21 424.11">
  <!-- Generator: Adobe Illustrator 30.8.1, SVG Export Plug-In . SVG Version: 2.1.4 Build 1)  -->
  <defs>
    <style>
      .st0 {
        fill: #2a2b63;
      }

      .st1 {
        fill: #009c3e;
      }
    </style>
  </defs>
  <path class="st1" d="M99.51,298.93c-19.7-58.4-13.5-114.6,12.1-169.6,0,2,.3,4.1,0,6-4.5,29.3-7.3,58.8-5.1,88.4,1.5,20.6,5.3,41,8.6,61.4,2.3,14.2,6.5,28.1,5.1,42.7-.7,7-1,7.7-7.9,7.4-26.1-1-48.3-11.9-67.7-28.5-22.8-19.3-36.9-43.9-42.4-73.4-4.6-24.8-1.6-48.9,5.2-72.8C21.81,109.73,50.51,67.23,85.51,28.73c8.3-9.2,17.5-17.5,26.2-26.3,3-3,5.5-3.4,8.9-.2,44.2,41.4,77.2,89.6,93.2,148.7,11.8,43.4,6,85-10.8,125.6-21.5,52.1-52.1,98.1-93.7,136.5-3.9,3.6-8.4,6.6-13.1,9.3-5.5,3.2-7,2.2-7-3.9,0-12.6,0-25.1.4-37.7,0-2.1,1.7-5,3.5-6.1,44.1-27.5,76.3-65.2,92.7-114.5,24.5-73.3,17.5-142.3-34.8-202.7-9.2-10.7-20.8-19.3-31.4-28.8-2.2-2-4.4-2.7-7.4-.7C64.31,60.63,32.11,103.53,26.61,162.63c-4.7,50.1,11.2,92.9,50.9,125.4,6.1,5,12.6,9.6,21.9,10.7l.1.2Z"/>
  <g>
    <path class="st0" d="M380.91,112.03c18,0,33.5,3.8,46.4,11.4s23,18.5,30.2,32.6,10.7,31.2,10.7,51.4v24.8h-132.5c.5,19.1,5.6,33.9,15.2,44.4s22.9,15.7,40,15.7,24.7-1.4,35-4.1c10.2-2.7,20.8-6.7,31.6-11.8v39.2c-9.9,4.9-20.1,8.5-30.7,10.9-10.6,2.3-23.3,3.5-38.1,3.5s-36.8-3.9-52-11.8c-15.2-7.9-27-19.8-35.5-35.9-8.5-16-12.8-35.9-12.8-59.7s3.9-44.3,11.7-60.7c7.8-16.4,18.6-28.8,32.4-37.2,13.8-8.4,30-12.6,48.5-12.6l-.1-.1ZM380.91,148.03c-12.3,0-22.4,4.2-30.2,12.6-7.8,8.4-12.4,20.9-13.9,37.4h86.2c0-9.8-1.5-18.5-4.6-26s-7.7-13.4-13.9-17.6c-6.2-4.3-14.1-6.4-23.7-6.4h.1Z"/>
    <path class="st0" d="M554.01,326.13l-76.2-210.2h49.2l40,121.4c1.7,4.9,3.3,10.3,4.8,16.1s2.8,11.5,3.9,17.1c1.1,5.6,1.8,10.4,2,14.5h1.5c.5-4.4,1.4-9.4,2.6-14.9,1.2-5.6,2.6-11.2,4.3-16.9,1.6-5.7,3.1-11,4.6-15.9l40-121.4h49.2l-76.2,210.2h-49.7Z"/>
    <path class="st0" d="M789.71,112.03c25.9,0,45.6,5.9,59,17.6,13.4,11.8,20.2,30.2,20.2,55.3v141.2h-32.9l-9.2-29.1h-1.5c-5.7,7.5-11.5,13.8-17.6,18.8-6,5-12.9,8.7-20.7,10.9s-17.2,3.3-28.3,3.3-22.5-2.3-32-7-17-11.8-22.4-21.5-8.1-21.9-8.1-36.7c0-21.7,7.6-38.1,22.8-49.1,15.2-11,38.2-17,69-18l34.8-1.2v-10.5c0-13.4-3.1-23-9.3-28.7s-14.8-8.5-25.9-8.5-19.9,1.6-29.2,4.7c-9.4,3.1-18.5,6.7-27.4,10.9l-14.8-34.1c9.9-5.4,21.1-9.8,33.9-13.2,12.7-3.4,26-5,39.8-5l-.2-.1ZM798.21,227.63c-20.5.8-34.7,4.5-42.5,11.1-7.9,6.6-11.8,15.5-11.8,26.6s2.8,16.9,8.5,21.3c5.7,4.4,12.9,6.6,21.8,6.6,13.6,0,25-4.1,34.4-12.2,9.4-8.1,14.1-20.2,14.1-36.3v-17.8l-24.4.8-.1-.1Z"/>
  </g>
  <g>
    <path class="st0" d="M1018.21,303.83c0,6.7-1.6,12.4-4.9,17s-8.1,8.1-14.5,10.5-14.2,3.5-23.4,3.5-13.4-.5-18.6-1.5-10.1-2.5-14.8-4.6v-19.9c5,2.4,10.7,4.3,16.9,5.9,6.2,1.6,11.9,2.4,17.2,2.4s11.3-1,14.2-3c2.9-2,4.4-4.6,4.4-8s-.6-3.8-1.7-5.4c-1.1-1.6-3.3-3.3-6.6-5.1-3.3-1.8-8.3-4.1-15-6.8-6.6-2.6-12-5.2-16.4-7.8s-7.6-5.7-9.9-9.4c-2.2-3.7-3.3-8.3-3.3-13.8,0-9,3.7-15.9,11-20.5s17-7,29-7,12.3.6,17.9,1.8,11.3,3.1,17,5.7l-7.6,17.3c-4.7-2-9.3-3.7-13.9-5-4.6-1.4-9.3-2-14.1-2s-9.1.8-11.7,2.3c-2.7,1.6-4,3.7-4,6.4s.7,3.9,2,5.5,3.7,3.1,7,4.6c3.3,1.6,8.1,3.6,14.3,6,6.2,2.4,11.5,4.8,15.8,7.3,4.4,2.5,7.7,5.7,10.1,9.4s3.6,8.4,3.6,14.1v.1Z"/>
    <path class="st0" d="M1082.51,230.43c9.2,0,17.1,1.8,23.8,5.5,6.6,3.7,11.8,8.9,15.4,15.6,3.7,6.8,5.5,15,5.5,24.6v11.9h-67.8c.3,9.2,2.8,16.3,7.8,21.3,4.9,5,11.7,7.5,20.5,7.5s12.7-.7,17.9-2c5.2-1.3,10.6-3.2,16.2-5.7v18.8c-5.1,2.4-10.3,4.1-15.7,5.2-5.4,1.1-11.9,1.7-19.5,1.7s-18.8-1.9-26.6-5.7c-7.8-3.8-13.8-9.5-18.2-17.2-4.4-7.7-6.5-17.2-6.5-28.6s2-21.2,6-29.1c4-7.9,9.5-13.8,16.6-17.8s15.3-6,24.8-6h-.2ZM1082.51,247.73c-6.3,0-11.5,2-15.4,6-4,4-6.3,10-7.1,17.9h44.1c0-4.7-.8-8.9-2.4-12.5s-3.9-6.4-7.1-8.5c-3.2-2-7.2-3.1-12.1-3.1v.2Z"/>
    <path class="st0" d="M1185.71,230.43c6.4,0,12.2,1.2,17.4,3.7,5.2,2.5,9.5,6.2,13.1,11.2h.9l2.3-13h19.9v101.5c0,9.5-1.8,17.6-5.5,24.1s-9.2,11.4-16.5,14.8c-7.3,3.3-16.5,5-27.5,5s-14.1-.5-20.3-1.4c-6.2-.9-12.1-2.5-17.6-4.7v-19.3c5.8,2.5,12,4.4,18.7,5.8,6.6,1.4,13.5,2,20.7,2s13.8-2.2,17.9-6.5,6.2-10.5,6.2-18.6v-2.6c0-1.9,0-4,.3-6.5.2-2.5.3-4.5.5-5.9h-.8c-3.5,5.2-7.8,9-12.9,11.4s-10.9,3.6-17.4,3.6c-12.5,0-22.3-4.6-29.4-13.8s-10.6-21.9-10.6-38.3,3.6-29.2,10.8-38.5c7.2-9.3,17.1-13.9,29.7-13.9l.1-.1ZM1192.01,249.53c-4.8,0-8.9,1.3-12.2,3.8-3.3,2.5-5.9,6.3-7.6,11.2-1.7,5-2.6,11.2-2.6,18.6,0,10.9,1.9,19.1,5.7,24.7,3.8,5.6,9.5,8.4,17,8.4s8-.5,11-1.6,5.5-2.8,7.5-5.2,3.4-5.5,4.5-9.3c1-3.8,1.5-8.3,1.5-13.7v-3.5c0-8.1-.9-14.5-2.7-19.4-1.8-4.9-4.5-8.5-8.1-10.7s-8.3-3.3-14.1-3.3h.1Z"/>
    <path class="st0" d="M1360.91,232.23v100.7h-18.8l-3.2-13h-1.1c-2.1,3.5-4.9,6.3-8.3,8.5s-7.1,3.8-11.2,4.8c-4,1.1-8.2,1.6-12.5,1.6-7.6,0-14.1-1.3-19.7-3.9-5.6-2.6-9.8-6.6-12.7-12-2.9-5.4-4.4-12.4-4.4-20.9v-65.8h23.9v61.1c0,7.4,1.5,13,4.5,16.8s7.8,5.7,14.4,5.7,11.5-1.3,15.2-4,6.3-6.5,7.8-11.6,2.3-11.3,2.3-18.8v-49.3h23.9l-.1.1Z"/>
    <path class="st0" d="M1445.21,230.43c1.5,0,3.3,0,5.3.2,2,.1,3.7.4,5.1.7l-2.1,21.7c-1.1-.2-2.6-.5-4.5-.7-1.8-.2-3.4-.3-4.8-.3-3.8,0-7.4.6-10.9,1.8s-6.6,2.9-9.3,5.2c-2.7,2.3-4.9,5.2-6.4,8.8-1.6,3.6-2.4,7.9-2.4,12.8v52.2h-23.9v-100.7h18.4l3.4,17.5h1.1c2-3.6,4.5-6.8,7.6-9.8,3-2.9,6.5-5.2,10.5-7,4-1.7,8.2-2.6,12.8-2.6l.1.2Z"/>
    <path class="st0" d="M1562.51,282.43c0,8.4-1.1,15.9-3.4,22.3-2.3,6.4-5.5,11.9-9.8,16.4-4.2,4.5-9.4,7.9-15.5,10.2s-12.9,3.4-20.4,3.4-13.6-1.1-19.5-3.4c-5.9-2.3-11.1-5.7-15.4-10.2-4.4-4.5-7.7-10-10.1-16.4s-3.6-13.9-3.6-22.3,2-20.6,5.9-28.3,9.6-13.6,17-17.7c7.4-4,16.1-6,26.2-6s18,2,25.3,6,13,9.9,17.1,17.7,6.3,17.2,6.3,28.3h-.1ZM1489.21,282.43c0,7.1.9,13.1,2.6,18.1s4.4,8.8,8,11.4c3.6,2.6,8.2,3.9,13.9,3.9s10.5-1.3,14.1-3.9c3.6-2.6,6.2-6.4,7.9-11.4,1.6-5,2.5-11.1,2.5-18.1s-.9-13.2-2.6-18.1c-1.7-4.9-4.4-8.6-8-11.2-3.6-2.5-8.2-3.8-13.9-3.8-8.6,0-14.8,2.9-18.7,8.6-3.9,5.7-5.8,13.9-5.8,24.5Z"/>
    <path class="st0" d="M1657.01,303.83c0,6.7-1.6,12.4-4.9,17s-8.1,8.1-14.5,10.5-14.2,3.5-23.4,3.5-13.4-.5-18.6-1.5-10.1-2.5-14.8-4.6v-19.9c5,2.4,10.7,4.3,16.9,5.9,6.2,1.6,11.9,2.4,17.2,2.4s11.3-1,14.2-3c2.9-2,4.4-4.6,4.4-8s-.6-3.8-1.7-5.4c-1.1-1.6-3.3-3.3-6.6-5.1-3.3-1.8-8.3-4.1-15-6.8-6.6-2.6-12-5.2-16.4-7.8s-7.6-5.7-9.9-9.4c-2.2-3.7-3.3-8.3-3.3-13.8,0-9,3.7-15.9,11-20.5s17-7,29-7,12.3.6,17.9,1.8,11.3,3.1,17,5.7l-7.6,17.3c-4.7-2-9.3-3.7-13.9-5-4.6-1.4-9.3-2-14.1-2s-9.1.8-11.7,2.3c-2.7,1.6-4,3.7-4,6.4s.7,3.9,2,5.5,3.7,3.1,7,4.6c3.3,1.6,8.1,3.6,14.3,6,6.2,2.4,11.5,4.8,15.8,7.3,4.4,2.5,7.7,5.7,10.1,9.4s3.6,8.4,3.6,14.1v.1Z"/>
  </g>
  <g>
    <path class="st0" d="M1693.71,183.63c-15.2,0-27.5,12.3-27.5,27.5s12.3,27.5,27.5,27.6c15.2,0,27.5-12.3,27.5-27.5s-12.3-27.5-27.5-27.6ZM1693.61,233.13c-12.1,0-21.9-9.8-21.9-21.9s9.8-21.9,21.9-21.9,21.9,9.8,21.9,22-9.9,21.9-22,21.9l.1-.1Z"/>
    <path class="st0" d="M1706.81,223.33c-1.3-2.5-2.5-5.1-3.8-7.6-.4-.7-.8-1.3-1.2-1.9-.9-1.1-1.9-1.9-3.3-2.3.6-.2,1.1-.4,1.6-.6,1.7-.9,3-2.2,3.6-4.1.4-1.4.4-2.9.2-4.3-.2-1.1-.5-2.1-1.2-3.1-.9-1.2-2.1-1.9-3.5-2.4-1.8-.6-3.7-.8-5.6-.8h-11.7q-.2,0-.2.2v28.4q0,.2.2.2h7q.2,0,.2-.2v-10.4c0-.1,0-.2.1-.2h2.8c1.1.1,2,.6,2.7,1.4.5.6.9,1.2,1.3,1.9,1.2,2.4,2.4,4.9,3.6,7.3,0,.1.1.2.3.2h7.5c2.5,0,.1,0,.2,0-.3-.6-.5-1.1-.8-1.6v-.1ZM1696.31,206.63c-.3,1.2-1.2,1.9-2.4,2.1-.6.1-1.2.2-1.8.2h-3q-.2,0-.2-.2v-7q0-.2.2-.2h3.3c.6,0,1.2,0,1.8.3,1,.3,1.7,1,2,2,.2.9.2,1.9,0,2.8h.1Z"/>
  </g>
</svg>